<svg id="Layer_1" data-name="Layer 1" xmlns="http://www.w3.org/2000/svg" viewBox="0 0 400.74 400.74"><defs><style>.cls-1{fill:#230a59;}</style></defs><title>LH_Icons</title><path class="cls-1" d="M330.07,314.73a19.5,19.5,0,0,0,2.48.38c3.24.06,6.44.61,6.12,4.73S335,324,331.86,324c-4.76,0-9.53,0-14.3,0H72.33c-.53,0-1.06,0-1.58,0-3.64-.34-8.81,1.46-9.59-3.92-.89-6.11,5.1-4.19,8.87-5.71v-5.54c0-39,0-78,.08-117,0-3.87-1.4-6.19-4.06-9a67,67,0,0,1-11.4-15.57c-4.08-8-4-16,1.27-24.46,10-16,19.1-32.57,28.16-49.13,4.2-7.69,9.9-11.06,18.72-11q96.93.28,193.85,0c8.75,0,14.61,3.07,18.86,10.8,9.76,17.79,19.89,35.38,30.12,52.9a17.53,17.53,0,0,1,1.93,13.15,41.33,41.33,0,0,1-14.68,24.43c-1.53,1.26-3.05,3.62-3.06,5.47-.16,41-.11,81.92-.09,122.88A19.52,19.52,0,0,0,330.07,314.73Zm-53.13-158c1.84,15.89,17.11,28.4,32.49,27.19,15.6-1.23,29.24-13.94,28.83-27.19-3.5,0-7,0-10.54,0-3.18,0-6.51-.31-6.62-4.3s3.19-4.44,6.4-4.39c2.59,0,5.19,0,8.22,0a16.41,16.41,0,0,0-.8-2.4c-9.48-16.71-18.83-33.51-28.68-50-1.28-2.14-5.13-3.89-7.8-3.9-65.66-.21-131.33-.15-197-.21-4.15,0-6.86,1.46-8.94,5.19-8.84,15.86-17.93,31.59-26.89,47.38a34.83,34.83,0,0,0-1.63,4c3.29,0,5.94.06,8.58,0,3.11-.09,6,.56,6.08,4.2s-2.8,4.51-6,4.49H61.16c1.15,15.09,15.75,27.68,31.07,27.28,15.57-.41,29.71-13,30.34-27.28q-12.69,0-25.37,0c-3.7,0-8.47.59-8.26-4.73.21-5,5-3.92,8.36-3.92q102.47,0,204.94,0c1.58,0,3.38-.41,4.7.2,1.56.71,3.84,2.41,3.75,3.52-.14,1.65-1.8,3.55-3.33,4.58-1.12.76-3.07.36-4.65.36C294.25,156.78,285.79,156.76,276.94,156.76ZM242.05,314.84v-6q0-48.48,0-96.95c0-7.78.59-8.34,8.55-8.35h47.15c8,0,8.62.64,8.62,8.88q0,48,0,95.9v6.39h14.17V191c-22.59,5.18-37.94-3.39-48.86-19.6-8.35,13.12-19.88,21.08-35.65,21.14-16,.07-27.69-7.82-36.23-21.59-8.49,13.9-20.17,21.54-36,21.6-15.95.06-27.49-8.17-36-21.24-11.91,18.09-27.89,24.45-48.62,19.46v124.1Zm55-23.17V212.73H251.17v78.94ZM133.21,157c1.29,15.3,16.11,27.85,31.55,27,15.67-.82,29.8-13.65,29.54-27Zm72,0c.36,14.05,15.05,26.94,30.46,27.09S266,171.23,266.38,157ZM251,314.73h46.06V301H251Z"/><path class="cls-1" d="M160.41,300.7q-29.67,0-59.34,0c-6.72,0-7.71-.95-7.72-7.63q0-41.06,0-82.12c0-6.33,1.1-7.39,7.43-7.39q59.61,0,119.21,0c6.38,0,7.41,1,7.42,7.37q0,41.33,0,82.65c0,6-1.1,7.11-7.13,7.12Q190.34,300.74,160.41,300.7Zm-58-9.23h116V212.88h-116Z"/></svg>