<svg id="Layer_1" data-name="Layer 1" xmlns="http://www.w3.org/2000/svg" viewBox="0 0 400.74 400.74"><defs><style>.cls-1{fill:#230a59;}</style></defs><title>LH_Icons</title><path class="cls-1" d="M94.58,215.54c0-26.91,0-53.82-.06-80.73a10.55,10.55,0,0,1,3.37-8.25Q116.81,107.95,135.43,89a10.05,10.05,0,0,1,7.86-3.21q55.74.14,111.5.06c9.91,0,14.66,4.84,14.66,14.85,0,32.41,0,64.82-.1,97.23,0,3.29.84,5,3.9,6.89a42.72,42.72,0,0,0,14.15,5.75c7.11,1.43,10.62,6.85,12.09,13.89a25.62,25.62,0,0,0,3.82,9.18c4.59,6.67,4.6,14,.07,20.77-1.9,2.82-2.54,6.46-4.1,9.56-1.89,3.75-3.69,7.72-6.43,10.8-1.74,2-2.7,3.5-2.68,6.05.07,14.72,0,29.44.06,44.16,0,3.93-.61,7.44-4.36,9.57s-7.44,1.12-10.34-1.43c-7-6.2-13.27-5.51-20.71-.06-7.95,5.83-14.55,1.77-14.62-8.08,0-3.27-.21-6.55,0-9.8.27-3.47-.84-4.59-4.46-4.56-19.47.17-38.95.06-58.43,0q-34.11,0-68.24,0c-9.87,0-14.51-4.63-14.52-14.43Q94.56,255.91,94.58,215.54Zm145.59,86.92c0-8.44.1-16.15-.11-23.85,0-1.16-1.28-2.56-2.32-3.39a18.42,18.42,0,0,1-6.81-12.06,21.08,21.08,0,0,0-3.56-8.35c-5-7-4.93-14.52-.07-21.5a24.87,24.87,0,0,0,3.68-9.23c1.38-6.94,5-12.19,11.82-13.61a46.62,46.62,0,0,0,14.92-6.22c2.84-1.73,3.39-3.38,3.38-6.27q-.09-47.92,0-95.85c0-7-.78-7.91-7.91-7.92h-103c-1.74,0-3.48.14-5.69.24V99.7c0,7.58.07,15.16,0,22.74-.1,8.31-5.1,13.31-13.36,13.4-6.69.08-13.37,0-20.06,0h-8.2V141q0,76.89,0,153.79c0,6.75.88,7.59,7.8,7.6l123.49,0Zm24.92-24.55c2-.88,3.87-1.26,5.14-2.34a22.72,22.72,0,0,1,13.31-5.49c4.52-.41,6.63-3.46,7.75-7.92a49.77,49.77,0,0,1,5.13-12.46c2.26-4,2.29-7.2,0-11.17a49.19,49.19,0,0,1-5.14-12.47c-1.11-4.49-3.27-7.38-7.84-7.75a22.33,22.33,0,0,1-12.86-5.43c-3.55-3-7.1-2.34-11.05,0a51.88,51.88,0,0,1-12.42,5.18c-4.85,1.35-6.81,3.41-8,8.28A41,41,0,0,1,234.37,238c-3,4.79-3,7.41,0,12.18a36.15,36.15,0,0,1,4.7,11.21c1.22,5.46,3.44,7.76,8.88,9,3.9.9,7.56,2.94,11.29,4.56C261.25,275.86,263.14,276.93,265.09,277.91Zm16.61,1.45c-5.55,2.2-10.89,5.95-16.25,6s-10.93-3.63-16.4-5.67V327c3.88-2.3,7.24-4.15,10.43-6.25,3.95-2.59,7.68-2.58,11.62,0,3.27,2.17,6.73,4.08,10.6,6.4ZM110.19,127.54c7.32,0,14.41.18,21.48-.15,1.46-.07,4-2,4.07-3.16.37-7.46.19-15,.19-22.24Z"/><path class="cls-1" d="M182.19,165.05h-54.8c-1.34,0-3,.42-3.94-.2-1.52-1-3.36-2.6-3.58-4.16-.16-1.13,1.92-2.84,3.33-3.82.83-.58,2.3-.29,3.48-.29l110,0c.74,0,1.48,0,2.23,0,2.79,0,5.27.86,5.3,4.08,0,3.42-2.44,4.35-5.49,4.34Q210.48,165,182.19,165.05Z"/><path class="cls-1" d="M163.31,248.26q-18.48,0-36.95,0c-1.33,0-3,.28-3.89-.39-1.25-.92-2.56-2.59-2.63-4,0-1.16,1.45-2.75,2.67-3.5,1-.62,2.59-.37,3.92-.37q36.94,0,73.89,0h1.78c2.77,0,4.76,1.21,4.73,4.13s-2,4.09-4.79,4.09H163.31Z"/><path class="cls-1" d="M160.72,177.57q18,0,36.06,0c2.87,0,5.71.29,5.81,3.89.11,3.81-2.73,4.37-5.84,4.37q-35.62,0-71.23,0c-3.08,0-6-.51-5.81-4.4.14-3.67,3-3.86,5.84-3.85Q143.13,177.59,160.72,177.57Z"/><path class="cls-1" d="M194.28,206.67q-13.38,0-26.74,0c-3,0-6.14-.22-6.24-4-.11-4.07,3.12-4.42,6.3-4.42q27,0,53.93,0c3,0,6.05.38,6,4.22s-3.07,4.18-6.09,4.18Z"/><path class="cls-1" d="M181.77,227.5c-7.56,0-15.13,0-22.69,0-3.05,0-6-.42-6.09-4.18s3-4.25,6-4.25q22.92,0,45.84,0c2.93,0,6,.19,6.05,4.15s-2.9,4.29-6,4.28C197.2,227.48,189.49,227.5,181.77,227.5Z"/><path class="cls-1" d="M136.52,269.09c-4,0-8,.05-12,0-2.62-.05-4.79-1-4.84-4-.06-3.29,2.19-4.27,5-4.28,7.7,0,15.41,0,23.11,0,2.72,0,4.76,1.13,4.85,4s-1.87,4.25-4.59,4.32C144.23,269.16,140.37,269.09,136.52,269.09Z"/><path class="cls-1" d="M229.82,177.57h9.79c2.81,0,5,1.4,4.52,4.14-.3,1.57-2.7,3.78-4.28,3.89-6.64.44-13.34.25-20,.16-2.75,0-5-1.63-4.27-4.37.39-1.55,2.76-3.32,4.49-3.64,3.16-.58,6.5-.16,9.76-.16Z"/><path class="cls-1" d="M134.09,198.3c3.27,0,6.53-.06,9.8,0,2.72.07,5,1.4,4.39,4.24-.37,1.59-2.7,3.78-4.27,3.88a155.36,155.36,0,0,1-20,0c-1.54-.1-3.85-2.35-4.19-4-.59-2.85,1.8-4.11,4.49-4.19,3.26-.1,6.53,0,9.79,0Z"/><path class="cls-1" d="M130.07,227.46c-2.07,0-4.36.55-6.15-.17s-3.64-2.51-4-4.16c-.21-1,2.23-3.6,3.68-3.78a51.88,51.88,0,0,1,12.82.05c1.43.18,3.57,2.63,3.54,4s-2.14,3.3-3.74,3.9C134.41,228,132.15,227.46,130.07,227.46Z"/><path class="cls-1" d="M170.91,260.71c3.76,0,6.78.38,6.7,4.28s-3.17,4.08-6.14,4.12-6.05-.54-6-4.3S168.59,260.58,170.91,260.71Z"/></svg>