<svg id="Layer_1" data-name="Layer 1" xmlns="http://www.w3.org/2000/svg" viewBox="0 0 400.74 400.74"><defs><style>.cls-1{fill:#230a59;}</style></defs><title>LH_Icons</title><path class="cls-1" d="M139.83,197c-6.69-15.82-4.29-32.06-4.92-48-8.06-2.09-8.06-2.09-8.18-10.55-.53-37.76,25-67.88,62.71-72.18,33.95-3.87,69.5,18.44,75.41,57.64,3.13,20.75,2.63,42-.44,63-.47,3.2-1.68,6.28-2.74,10.09,7.5,0,14.73,0,22,0,11.29,0,16.05,5.66,15.05,16.78-1.69,18.64-2.93,37.32-4.39,56-1.22,15.7-2.42,31.41-3.78,47.11-.49,5.7-3.9,9.39-9.49,10.71a26.38,26.38,0,0,1-6,.68q-74.44,0-148.89,0c-8.22,0-13-2.66-14.87-8.77a38.79,38.79,0,0,1-1.31-8.76q-3.41-44.57-6.7-89.13c-.27-3.58-.85-7.14-.91-10.72-.13-8.43,5.16-13.8,13.55-13.88C123.65,196.93,131.42,197,139.83,197Zm60.72,8.23H119.14c-8.71,0-8.71,0-8.4,8.47,0,.31,0,.63,0,.94,2.53,33.1,5.11,66.21,7.56,99.33.34,4.59,2.42,6,6.89,6q75.34-.17,150.68,0c4.5,0,6.39-1.42,6.74-6,2.51-33.74,5.26-67.45,7.83-101.18.54-7-.1-7.49-7.12-7.5Zm-57.13-55.6c0,8.78-.47,16.74.14,24.61.49,6.29,2.24,12.49,3.53,18.71.62,3,2.33,4.15,5.63,4.13q47.76-.21,95.53,0c3.17,0,4.71-1,5.86-3.9,5-12.62,3.55-25.81,3.67-38.86a2.9,2.9,0,0,0-.64-1.7c-10-12.27-18.19-21-36.1-14.9C196.06,146.22,170.87,152.94,143.42,149.62ZM135.3,140c12.65,2.42,25.21,2.36,37.83,1.27,15.39-1.34,29.5-7.84,44.32-10.9,12.76-2.64,21.06-9.34,28.32-18.9a9.8,9.8,0,0,1,1.87-2.08c3-2.17,2.32-4.34.59-7.08-14.61-23-44.17-33.77-70-25.43A61.54,61.54,0,0,0,135.3,140ZM242,128.13l16.7,12.11c-1.25-9-2.35-17-3.44-24.87l-1.68-.14Z"/><path class="cls-1" d="M200.42,283.06a20.46,20.46,0,1,1,20.63-20.42A20.64,20.64,0,0,1,200.42,283.06Zm-12-20.71a12.17,12.17,0,1,0,12.28-11.92A12,12,0,0,0,188.43,262.35Z"/></svg>