<svg id="Layer_1" data-name="Layer 1" xmlns="http://www.w3.org/2000/svg" viewBox="0 0 400.74 400.74"><defs><style>.cls-1{fill:#230a59;}</style></defs><title>LH_Icons</title><path class="cls-1" d="M222.2,260.42c1,5,2.06,9.9,3,14.79,1.09,5.86-.46,7.78-6.29,7.8q-16.77.08-33.55,0c-5.22,0-6.88-2-6-7.25.87-5.07,2-10.1,3.13-15.83-5.16,0-10-.52-14.65.26-1.74.3-3.83,3.43-4.28,5.57-1.39,6.68-1.87,13.55-3.17,20.26-.42,2.12-2.12,5.4-3.58,5.59-2.05.27-5.05-1.29-6.54-3-21.95-25.31-20.53-59.93,3.45-83.34,2.57-2.51,2.91-4.5,2-7.78A114.88,114.88,0,0,1,197.58,74.91c3.36-2.52,6-2.58,9.37,0,37.74,28.13,54.66,77.22,42,122.55-.9,3.21-.74,5.25,1.89,7.81,23,22.44,25.34,55.11,5.92,80.77-1,1.32-1.94,2.88-3.28,3.73-1.68,1.07-4,2.44-5.59,2s-3.16-2.86-3.5-4.65c-1.29-6.71-2.11-13.51-3-20.29-.85-6.12-1.69-6.91-8-6.94-3.17,0-6.34,0-9.51.08A9.65,9.65,0,0,0,222.2,260.42ZM202.31,124c-9.5,0-19,.1-28.51-.07-2.76,0-4.16.8-5.18,3.4-7.45,18.94-10.44,38.61-5.64,58.35,5.06,20.82,12.07,41.18,18.5,61.65.41,1.32,3.12,2.68,4.79,2.71,10.66.25,21.34,0,32,.18,2.91,0,4.35-.69,5.28-3.75,4.72-15.44,9.81-30.76,14.68-46.15,7.66-24.21,7.2-48.2-1.87-72-1.3-3.43-3-4.46-6.54-4.37C220.66,124.1,211.49,124,202.31,124Zm27.08-9.46c-6.59-13-16.13-22.61-27.07-31-13.11,9.93-23.46,22-26.59,31ZM152.8,276c1.08-13.71,1.73-26.76,19.62-26-4.12-12.84-8-25-12-37.28C143.25,224.44,139,256,152.8,276Zm99.69-1.26c14.61-19.65,7.15-51.67-8.43-61.79-3.93,12.26-7.82,24.42-11.87,37.08,6.72-.18,13.07,1.11,15.83,7.07C250.5,262.45,251.06,268.72,252.49,274.71ZM192.07,260c-.88,4.56-1.74,9-2.63,13.57h25.8c-1-4.75-1.89-9.2-2.79-13.57Z"/><path class="cls-1" d="M221.17,329.05h-9.36v-36.7h9.34v14.41c15.85-1.7,20.06-.63,31.77,7.83,15.63-12.56,19.21-13.67,38.76-12,10-27.38,27-40.31,50.48-38.07V273c-5.52,1-11.28,1.19-16.49,3-13.27,4.63-21.59,14.05-24.2,28.05a5.37,5.37,0,0,0,1.21,4.17c3,3,6.41,5.74,9.17,8.15,6.71-2.89,13.29-6,20.08-8.54,3.05-1.14,6.51-1.15,10.21-1.73v9.39c-22,2.34-34.73,14.47-37.13,37.27h-8.7c-.6-8.92.86-13.44,9.06-28.21-8.9-15.79-31.79-17.91-43.77-4.82-1.88,2.06-2.53,3.73-1.33,6.58,1.59,3.77,2.29,7.92,3.51,12.43h-9.93c-.94-7.25-2.87-14.14-9.45-18.76a23.89,23.89,0,0,0-18.92-4.25c-3.22.59-4.7,1.84-4.36,5.24C221.37,323.45,221.17,326,221.17,329.05Z"/><path class="cls-1" d="M150.84,338.86h-10c1.21-4.58,2-8.82,3.5-12.75,1-2.64.57-4.22-1.2-6.17C131.4,307,109,308.34,99.26,324.32c2.34,4.55,5.17,8.93,6.87,13.71,1.63,4.6,2.09,9.63,3.14,14.85h-9.9c-.33-10.21-3.73-19.18-10.9-26.18-7-6.84-15.58-10.79-26-10.66v-9.53c11.21.1,20.86,4.1,29.37,10.66,3.61-3.14,7.09-5.92,10.21-9.05a5.63,5.63,0,0,0,1-4.27c-2.48-16-17.47-29.19-33.59-29.87l-7.15-.34v-9c19-2.19,44,9.17,50.49,38.18,14.85-3,27.94.42,37.88,11.24,5.49-2.53,10.36-5.62,15.67-7s10.79-.83,16.86-1.17v-13.6h9.58V329h-9.4a49,49,0,0,1,.05-6.67c.64-4.44-1.24-6.12-5.57-6.77C163.89,313.43,152.89,322.56,150.84,338.86Z"/><path class="cls-1" d="M122.83,320.73v8.73h-9.09v-8.73Z"/><path class="cls-1" d="M333.49,245.31V236.5h8.72v8.81Z"/><path class="cls-1" d="M324.05,287.94h8.78v8.69h-8.78Z"/><path class="cls-1" d="M71.07,246.1v8.6H62.39v-8.6Z"/><path class="cls-1" d="M295.37,278.06H286.8v-8.82h8.57Z"/><path class="cls-1" d="M202.05,194a28,28,0,0,1-27.78-28.12c.14-15.26,13.27-28.18,28.29-27.84a28.43,28.43,0,0,1,27.77,28.37A27.83,27.83,0,0,1,202.05,194Zm0-46.31a18.71,18.71,0,0,0-18.52,18.44,18.76,18.76,0,0,0,37.52,0C221.12,156,212.49,147.61,202.05,147.69Z"/><path class="cls-1" d="M206.82,208.48v8.94h-8.91v-8.94Z"/><path class="cls-1" d="M179.42,208.43H188v8.87h-8.58Z"/><path class="cls-1" d="M225.42,208.46v8.79h-8.7v-8.79Z"/></svg>